<svg width="455" height="860" viewBox="0 0 455 860" fill="none" xmlns="http://www.w3.org/2000/svg">
<path fill-rule="evenodd" clip-rule="evenodd" d="M165.524 104.112L212.246 59.2883L212.246 148.935L165.524 104.112ZM336.098 104.112L243.793 192.665L243.793 242.359L283.036 204.712L283.257 204.924L283.479 204.71L353.845 272.216L410.516 217.848L363.436 172.683L348.865 186.662L373.178 209.988L350.872 231.388L304.4 186.805L311.312 180.173L311.164 180.031L363.213 130.098L363.436 130.312L363.659 130.097L454.745 217.48L454.258 217.947L454.642 218.316L243.793 420.594L243.793 860L212.247 860L212.246 421.205L0.759407 218.316L1.12471 217.965L0.61869 217.48L91.7039 130.097L91.9292 130.313L92.1538 130.098L144.203 180.031L144.052 180.175L150.963 186.805L104.491 231.388L82.1845 209.988L106.5 186.661L91.9285 172.681L44.8666 217.83L101.538 272.198L171.885 204.71L172.11 204.927L172.334 204.712L212.246 243.002L212.246 193.518L119.052 104.112L227.575 -3.96823e-05L336.098 104.112ZM243.793 280.194L243.793 323.111L272.293 350.453L331.538 293.616L283.258 247.298L268.687 261.277L293.001 284.602L270.694 306.002L243.793 280.194ZM123.844 293.597L172.109 247.295L186.681 261.275L162.366 284.602L184.672 306.002L212.246 279.548L212.246 322.519L183.119 350.462L123.844 293.597ZM289.626 104.112L243.793 60.1414L243.793 148.082L289.626 104.112Z" fill="white"/>
</svg>
