<svg width="2000" height="2000" viewBox="0 0 2000 2000" fill="none" xmlns="http://www.w3.org/2000/svg">
<rect width="2000" height="2000" fill="#03988F"/>
<path fill-rule="evenodd" clip-rule="evenodd" d="M895.124 450.593L973.922 374.999L973.922 526.187L895.124 450.593ZM1182.81 450.593L1027.13 599.95L1027.13 683.759L1093.31 620.263L1093.69 620.624L1094.07 620.262L1212.74 734.113L1308.32 642.419L1228.92 566.244L1204.35 589.82L1245.35 629.162L1207.73 665.254L1129.35 590.062L1141.01 578.879L1140.76 578.637L1228.54 494.421L1228.92 494.782L1229.3 494.42L1382.92 641.798L1382.1 642.586L1382.75 643.207L1027.13 984.369L1027.13 1725.46L973.922 1725.46L973.922 985.396L617.233 643.207L617.851 642.614L617 641.798L770.623 494.42L771 494.782L771.376 494.421L859.16 578.637L858.908 578.879L870.565 590.062L792.186 665.254L754.564 629.162L795.573 589.82L770.999 566.245L691.626 642.391L787.205 734.085L905.851 620.262L906.229 620.624L906.606 620.263L973.922 684.842L973.922 601.38L816.745 450.593L999.779 275L1182.81 450.593ZM1027.13 747.566L1027.13 819.948L1075.2 866.066L1175.12 770.206L1093.69 692.086L1069.12 715.663L1110.12 755.004L1072.5 791.097L1027.13 747.566ZM824.827 770.177L906.228 692.085L930.804 715.663L889.796 755.004L927.418 791.097L973.922 746.483L973.922 818.96L924.799 866.086L824.827 770.177ZM1104.43 450.593L1027.13 376.429L1027.13 524.757L1104.43 450.593Z" fill="white"/>
</svg>
