<svg class="logo-icon block" width="36" height="36" viewBox="0 0 36 36" fill="none" xmlns="http://www.w3.org/2000/svg">
  <title>{{ site.title }}</title>
  <rect width="36" height="36" rx="6" fill="#1FBCBC"/>
  <path fill-rule="evenodd" clip-rule="evenodd" d="M18.9366 16.6155C18.9366 16.5237 18.9731 16.4357 19.038 16.3708L24.0352 11.3787C24.1704 11.2436 24.1704 11.0244 24.0352 10.8893L18.2411 5.10106C18.1061 4.96615 17.8873 4.96615 17.7522 5.10106L11.9582 10.8893C11.823 11.0244 11.823 11.2436 11.9582 11.3787L17.0087 16.4241C17.0736 16.489 17.1101 16.577 17.1101 16.6688V18.68C17.1101 18.9871 16.7397 19.1418 16.5212 18.9261L15.0299 17.4535C14.895 17.3203 14.6779 17.3205 14.5433 17.4541L10.9442 21.0258C10.8091 21.16 10.5909 21.1596 10.4561 21.025L7.66384 18.2355C7.52861 18.1004 7.52861 17.8812 7.66384 17.7461L9.89883 15.5133C10.0339 15.3784 10.2527 15.3784 10.3877 15.5133L10.7415 15.8668C10.8767 16.0019 10.8767 16.221 10.7415 16.3561L9.8236 17.2731C9.68837 17.4082 9.68837 17.6274 9.8236 17.7625L10.6257 18.5638C10.7608 18.6987 10.9796 18.6987 11.1146 18.5638L13.3166 16.3641C13.4516 16.2292 13.4518 16.0105 13.3172 15.8753L10.3995 12.9458C10.2647 12.8105 10.0459 12.81 9.91051 12.9446L5.10297 17.7251C4.96734 17.8599 4.96692 18.0793 5.10204 18.2147L17.7608 30.8983C17.8957 31.0336 18.1148 31.0338 18.25 30.8987L30.8995 18.2639C31.0345 18.129 31.0348 17.9104 30.9003 17.7752L26.108 12.9586C25.9732 12.8231 25.754 12.8227 25.6186 12.9576L22.6917 15.8753C22.5562 16.0104 22.5561 16.2298 22.6915 16.365L24.8925 18.5638C25.0275 18.6987 25.2464 18.6987 25.3814 18.5638L26.1835 17.7625C26.3188 17.6274 26.3188 17.4082 26.1835 17.2731L25.2657 16.3561C25.1304 16.221 25.1304 16.0019 25.2657 15.8668L25.6194 15.5133C25.7545 15.3784 25.9733 15.3784 26.1083 15.5133L28.3441 17.7469C28.4793 17.882 28.4793 18.1012 28.3441 18.2363L25.5515 21.0262C25.4167 21.1608 25.1985 21.1611 25.0633 21.0269L21.4526 17.4422C21.3175 17.308 21.0992 17.3083 20.9645 17.443L19.5269 18.8791C19.309 19.0968 18.9366 18.9424 18.9366 18.6344V16.6155ZM17.1101 9.26498C17.1101 8.95693 16.7377 8.80257 16.5198 9.02029L14.6489 10.8893C14.5137 11.0244 14.5137 11.2436 14.6489 11.3787L16.5198 13.2477C16.7377 13.4654 17.1101 13.3111 17.1101 13.003V9.26498ZM20.6223 20.8546C20.4871 20.7195 20.4871 20.5004 20.6223 20.3653L20.9764 20.0115C21.1115 19.8766 21.3303 19.8766 21.4653 20.0115L23.7713 22.3152C23.9065 22.4503 23.9065 22.6695 23.7713 22.8046L20.8307 25.7422C20.6957 25.8771 20.4769 25.8771 20.3418 25.7422L19.038 24.4397C18.9731 24.3748 18.9366 24.2868 18.9366 24.195V22.5855C18.9366 22.2775 19.309 22.1231 19.5269 22.3408L20.2491 23.0623C20.3842 23.1972 20.603 23.1972 20.738 23.0623L21.5402 22.2609C21.6754 22.1258 21.6754 21.9067 21.5402 21.7716L20.6223 20.8546ZM15.3856 20.8546C15.5208 20.7195 15.5208 20.5004 15.3856 20.3653L15.0307 20.0107C14.8957 19.8758 14.6768 19.8758 14.5418 20.0107L12.2363 22.314C12.101 22.4491 12.101 22.6683 12.2363 22.8034L15.1788 25.743C15.3139 25.8779 15.5327 25.8779 15.6677 25.743L17.0087 24.4034C17.0736 24.3385 17.1101 24.2505 17.1101 24.1587L17.1101 22.5468C17.1101 22.2387 16.7377 22.0844 16.5198 22.3021L15.7588 23.0623C15.6238 23.1972 15.405 23.1972 15.2699 23.0623L14.4678 22.2609C14.3326 22.1258 14.3326 21.9067 14.4678 21.7716L15.3856 20.8546ZM18.9366 9.31828C18.9366 9.01022 19.309 8.85586 19.5269 9.07359L21.3445 10.8893C21.4797 11.0244 21.4797 11.2436 21.3445 11.3787L19.5269 13.1944C19.309 13.4121 18.9366 13.2578 18.9366 12.9497V9.31828Z" fill="white"/>
</svg>
