<svg class="logo block" width="132" height="36" viewBox="0 0 132 36" fill="none" xmlns="http://www.w3.org/2000/svg">
  <title>{{ site.title }}</title>
  <path d="M126.732 22.8821V17.4865C126.732 16.0049 125.273 15.4521 124.079 14.9214C123.924 15.0541 123.791 15.2973 123.791 15.8944V21.2899C123.791 22.7715 125.229 23.3464 126.423 23.8772C126.6 23.7445 126.732 23.4791 126.732 22.8821ZM129.629 15.8944V21.2899C129.629 22.9042 130.447 23.4128 131.31 24.231L128.457 25.9115C127.971 25.4472 127.374 25.0049 127.064 24.3858C126.224 24.828 124.985 25.3587 124.057 25.7789C122.708 25.1597 120.895 24.6069 120.895 22.8821V17.4865C120.895 15.1646 124.167 14.0369 126.467 12.9976C127.816 13.6167 129.629 14.1917 129.629 15.8944Z" fill="#141C24"/>
  <path d="M118.682 8V21.2899C118.682 23.6118 115.409 24.7395 113.109 25.7788C111.761 25.1597 109.947 24.6069 109.947 22.882V17.4865C109.947 15.1425 113.242 14.0368 115.52 12.9975L115.785 13.1302V9.59214L118.682 8ZM115.785 22.882V17.4865C115.785 16.0049 114.326 15.4521 113.132 14.9214C112.977 15.054 112.844 15.2973 112.844 15.8943V21.2899C112.844 22.7715 114.281 23.3464 115.498 23.8771C115.652 23.7445 115.785 23.4791 115.785 22.882Z" fill="#141C24"/>
  <path d="M101.469 16.2924V24.4079L98.5718 26V17.4865C98.5718 16.0491 97.82 15.43 96.8691 14.5676L99.7217 12.8649C100.208 13.3292 100.805 13.7936 101.137 14.3907C101.955 13.9484 103.193 13.4398 104.122 12.9975C105.493 13.6167 107.284 14.1916 107.284 15.8943V21.5553C107.284 23.1253 108.036 23.3464 108.987 24.2309L106.134 25.9115C105.184 25.027 104.41 24.8059 104.41 23.1474V17.4865C104.41 16.0049 102.95 15.4521 101.756 14.9214C101.469 15.1867 101.469 15.7174 101.469 16.2924Z" fill="#141C24"/>
  <path d="M92.7915 22.882V14.3685L95.6883 12.7764V21.2899C95.6883 22.7493 96.418 23.3464 97.3689 24.2088L94.5163 25.9115C94.0298 25.4471 93.4328 25.0049 93.1232 24.3857C92.2829 24.8279 91.0667 25.3587 90.1158 25.7788C88.7669 25.1596 86.9537 24.6068 86.9537 22.882V17.2211C86.9537 15.6732 86.2018 15.4299 85.251 14.5675L88.1036 12.8648C89.0544 13.7493 89.8505 13.9705 89.8505 15.6289V21.2899C89.8505 22.7714 91.2878 23.3464 92.4819 23.8771C92.6588 23.7223 92.7915 23.4791 92.7915 22.882Z" fill="#141C24"/>
  <path d="M85.6575 24.2309L82.8049 25.9115C81.854 25.027 81.0801 24.8059 81.0801 23.1474V9.59214L83.9769 8V21.5553C83.9769 23.0147 84.7508 23.3685 85.6575 24.2309Z" fill="#141C24"/>
  <path d="M70.7393 14.5676L73.5918 12.8649C74.1004 13.3292 74.6975 13.7715 75.0071 14.3907C75.8252 13.9484 77.1299 13.3956 78.0808 12.9754C79.0537 13.86 79.4518 14.3022 80.6459 15.0983L77.8154 16.801C76.7761 16.0934 76.4886 15.828 75.5599 14.9656C75.3388 15.2531 75.3388 15.7617 75.3388 16.2703V24.4079L72.442 26V17.4865C72.442 16.027 71.6901 15.43 70.7393 14.5676Z" fill="#141C24"/>
  <path d="M66.915 22.8821V17.4865C66.915 16.0049 65.4555 15.4521 64.2614 14.9214C64.0845 15.0541 63.9518 15.2973 63.9518 15.8944V21.2899C63.9518 22.7715 65.4113 23.3464 66.6054 23.8772C66.7823 23.7445 66.915 23.4791 66.915 22.8821ZM69.7897 15.8944V21.2899C69.7897 23.6339 66.4948 24.7396 64.2393 25.7789C62.8904 25.1597 61.0771 24.6069 61.0771 22.8821V17.4865C61.0771 15.1646 64.3499 14.0369 66.6275 12.9976C67.9985 13.6167 69.7897 14.1917 69.7897 15.8944Z" fill="#141C24"/>
  <path d="M52.5995 16.2924V24.4079L49.7027 26V17.4865C49.7027 16.0491 48.9509 15.43 48 14.5676L50.8526 12.8649C51.3391 13.3292 51.9361 13.7936 52.2678 14.3907C53.086 13.9484 54.3243 13.4398 55.2531 12.9975C56.6241 13.6167 58.4152 14.1916 58.4152 15.8943V21.5553C58.4152 23.1253 59.1671 23.3464 60.1179 24.2309L57.2653 25.9115C56.3145 25.027 55.5405 24.8059 55.5405 23.1474V17.4865C55.5405 16.0049 54.0811 15.4521 52.887 14.9214C52.5995 15.1867 52.5995 15.7174 52.5995 16.2924Z" fill="#141C24"/>
  <rect width="36" height="36" rx="6" fill="#1FBCBC"/>
  <path fill-rule="evenodd" clip-rule="evenodd" d="M18.9366 16.6155C18.9366 16.5237 18.9731 16.4357 19.038 16.3708L24.0352 11.3787C24.1704 11.2436 24.1704 11.0244 24.0352 10.8893L18.2411 5.10106C18.1061 4.96615 17.8873 4.96615 17.7522 5.10106L11.9582 10.8893C11.823 11.0244 11.823 11.2436 11.9582 11.3787L17.0087 16.4241C17.0736 16.489 17.1101 16.577 17.1101 16.6688V18.68C17.1101 18.9871 16.7397 19.1418 16.5212 18.9261L15.0299 17.4535C14.895 17.3203 14.6779 17.3205 14.5433 17.4541L10.9442 21.0258C10.8091 21.16 10.5909 21.1596 10.4561 21.025L7.66384 18.2355C7.52861 18.1004 7.52861 17.8812 7.66384 17.7461L9.89883 15.5133C10.0339 15.3784 10.2527 15.3784 10.3877 15.5133L10.7415 15.8668C10.8767 16.0019 10.8767 16.221 10.7415 16.3561L9.8236 17.2731C9.68837 17.4082 9.68837 17.6274 9.8236 17.7625L10.6257 18.5638C10.7608 18.6987 10.9796 18.6987 11.1146 18.5638L13.3166 16.3641C13.4516 16.2292 13.4518 16.0105 13.3172 15.8753L10.3995 12.9458C10.2647 12.8105 10.0459 12.81 9.91051 12.9446L5.10297 17.7251C4.96734 17.8599 4.96692 18.0793 5.10204 18.2147L17.7608 30.8983C17.8957 31.0336 18.1148 31.0338 18.25 30.8987L30.8995 18.2639C31.0345 18.129 31.0348 17.9104 30.9003 17.7752L26.108 12.9586C25.9732 12.8231 25.754 12.8227 25.6186 12.9576L22.6917 15.8753C22.5562 16.0104 22.5561 16.2298 22.6915 16.365L24.8925 18.5638C25.0275 18.6987 25.2464 18.6987 25.3814 18.5638L26.1835 17.7625C26.3188 17.6274 26.3188 17.4082 26.1835 17.2731L25.2657 16.3561C25.1304 16.221 25.1304 16.0019 25.2657 15.8668L25.6194 15.5133C25.7545 15.3784 25.9733 15.3784 26.1083 15.5133L28.3441 17.7469C28.4793 17.882 28.4793 18.1012 28.3441 18.2363L25.5515 21.0262C25.4167 21.1608 25.1985 21.1611 25.0633 21.0269L21.4526 17.4422C21.3175 17.308 21.0992 17.3083 20.9645 17.443L19.5269 18.8791C19.309 19.0968 18.9366 18.9424 18.9366 18.6344V16.6155ZM17.1101 9.26498C17.1101 8.95693 16.7377 8.80257 16.5198 9.02029L14.6489 10.8893C14.5137 11.0244 14.5137 11.2436 14.6489 11.3787L16.5198 13.2477C16.7377 13.4654 17.1101 13.3111 17.1101 13.003V9.26498ZM20.6223 20.8546C20.4871 20.7195 20.4871 20.5004 20.6223 20.3653L20.9764 20.0115C21.1115 19.8766 21.3303 19.8766 21.4653 20.0115L23.7713 22.3152C23.9065 22.4503 23.9065 22.6695 23.7713 22.8046L20.8307 25.7422C20.6957 25.8771 20.4769 25.8771 20.3418 25.7422L19.038 24.4397C18.9731 24.3748 18.9366 24.2868 18.9366 24.195V22.5855C18.9366 22.2775 19.309 22.1231 19.5269 22.3408L20.2491 23.0623C20.3842 23.1972 20.603 23.1972 20.738 23.0623L21.5402 22.2609C21.6754 22.1258 21.6754 21.9067 21.5402 21.7716L20.6223 20.8546ZM15.3856 20.8546C15.5208 20.7195 15.5208 20.5004 15.3856 20.3653L15.0307 20.0107C14.8957 19.8758 14.6768 19.8758 14.5418 20.0107L12.2363 22.314C12.101 22.4491 12.101 22.6683 12.2363 22.8034L15.1788 25.743C15.3139 25.8779 15.5327 25.8779 15.6677 25.743L17.0087 24.4034C17.0736 24.3385 17.1101 24.2505 17.1101 24.1587L17.1101 22.5468C17.1101 22.2387 16.7377 22.0844 16.5198 22.3021L15.7588 23.0623C15.6238 23.1972 15.405 23.1972 15.2699 23.0623L14.4678 22.2609C14.3326 22.1258 14.3326 21.9067 14.4678 21.7716L15.3856 20.8546ZM18.9366 9.31828C18.9366 9.01022 19.309 8.85586 19.5269 9.07359L21.3445 10.8893C21.4797 11.0244 21.4797 11.2436 21.3445 11.3787L19.5269 13.1944C19.309 13.4121 18.9366 13.2578 18.9366 12.9497V9.31828Z" fill="white"/>
</svg>
