<svg class="spinner block" width="22" height="22" viewBox="0 0 24 24" fill="none" xmlns="http://www.w3.org/2000/svg">
  <g clip-path="url(#clip0_238_2)">
    <rect width="24" height="24" fill="transparent"/>
    <path d="M5.1034 4.84943C4.72928 4.40729 4.05637 4.36893 3.67746 4.80696C2.0092 6.73548 1 9.24986 1 12C1 18.0751 5.92487 23 12 23C17.359 23 21.8229 19.1678 22.8009 14.0943C22.9132 13.5113 22.4435 13 21.8498 13V13C21.3348 13 20.9084 13.3894 20.8006 13.8929C19.9311 17.9546 16.3212 21 12 21C7.02944 21 3 16.9705 3 12C3 9.81487 3.7787 7.81166 5.07373 6.25269C5.41101 5.84668 5.44435 5.25237 5.1034 4.84943V4.84943Z"/>
  </g>
  <defs>
    <clipPath id="clip0_238_2">
    <rect width="24" height="24" fill="transparent"/>
  </clipPath>
  </defs>
</svg>
