<svg class="block" width="16" height="16" viewBox="0 0 16 16" fill="none" xmlns="http://www.w3.org/2000/svg">
  <title>Up Arrow</title>
  <path class="up-arrow-path" fill-rule="evenodd" clip-rule="evenodd" d="M8 1C8.55228 1 9 1.42981 9 1.96V15.04C9 15.5702 8.55228 16 8 16C7.44772 16 7 15.5702 7 15.04V1.96C7 1.42981 7.44772 1 8 1Z"/>
  <path class="up-arrow-path" fill-rule="evenodd" clip-rule="evenodd" d="M7.29289 0.281178C7.68342 -0.0937259 8.31658 -0.0937259 8.70711 0.281178L15.7071 7.00118C16.0976 7.37608 16.0976 7.98392 15.7071 8.35882C15.3166 8.73373 14.6834 8.73373 14.2929 8.35882L8 2.31765L1.70711 8.35882C1.31658 8.73373 0.683417 8.73373 0.292893 8.35882C-0.0976311 7.98392 -0.0976311 7.37608 0.292893 7.00118L7.29289 0.281178Z"/>
</svg>