<svg width="26" height="20" viewBox="0 0 26 20" fill="none" xmlns="http://www.w3.org/2000/svg">
<path d="M21.886 1.675C20.2136 0.8925 18.4253 0.323815 16.5557 0C16.3261 0.415119 16.0579 0.973462 15.8729 1.41762C13.8855 1.11874 11.9164 1.11874 9.96554 1.41762C9.78063 0.973462 9.50629 0.415119 9.27463 0C7.40304 0.323815 5.61273 0.894589 3.94028 1.67914C0.566943 6.77669 -0.347514 11.7476 0.109716 16.648C2.34709 18.3188 4.51538 19.3338 6.64707 19.9979C7.1734 19.2736 7.64281 18.5035 8.0472 17.692C7.27703 17.3994 6.53937 17.0382 5.84237 16.6189C6.02728 16.482 6.20815 16.3387 6.3829 16.1914C10.6341 18.1798 15.2531 18.1798 19.4536 16.1914C19.6304 16.3387 19.8112 16.482 19.9941 16.6189C19.295 17.0403 18.5554 17.4014 17.7852 17.6941C18.1896 18.5035 18.657 19.2757 19.1853 20C21.3191 19.3358 23.4894 18.3209 25.7267 16.648C26.2632 10.9672 24.8103 6.04194 21.886 1.675ZM8.62637 13.6343C7.3502 13.6343 6.30363 12.4429 6.30363 10.9921C6.30363 9.54132 7.32785 8.34788 8.62637 8.34788C9.92492 8.34788 10.9714 9.53923 10.9491 10.9921C10.9511 12.4429 9.92492 13.6343 8.62637 13.6343ZM17.2101 13.6343C15.9339 13.6343 14.8874 12.4429 14.8874 10.9921C14.8874 9.54132 15.9115 8.34788 17.2101 8.34788C18.5086 8.34788 19.5552 9.53923 19.5328 10.9921C19.5328 12.4429 18.5086 13.6343 17.2101 13.6343Z" fill="#1E1E1E"/>
</svg>
