<svg width="720" height="480" viewBox="0 0 720 480" fill="none" xmlns="http://www.w3.org/2000/svg">
<rect width="720" height="480" fill="#1FBCBC"/>
<path fill-rule="evenodd" clip-rule="evenodd" d="M333.983 103.582L353.538 84.8201L353.538 122.344L333.983 103.582ZM405.379 103.582L366.742 140.652L366.742 161.453L383.168 145.693L383.261 145.783L383.355 145.693L412.807 173.951L436.527 151.193L416.821 132.286L410.722 138.137L420.9 147.902L411.563 156.86L392.112 138.198L395.004 135.422L394.942 135.362L416.727 114.46L416.821 114.549L416.914 114.46L455.039 151.038L454.836 151.234L454.996 151.388L366.742 236.064L366.742 420L353.538 420L353.538 236.319L265.017 151.388L265.17 151.241L264.959 151.038L303.084 114.46L303.178 114.55L303.272 114.46L325.058 135.362L324.995 135.422L327.887 138.198L308.436 156.86L299.099 147.902L309.277 138.137L303.178 132.286L283.479 151.185L307.2 173.944L336.644 145.693L336.738 145.783L336.831 145.693L353.538 161.722L353.538 141.006L314.531 103.582L359.955 60.0001L405.379 103.582ZM366.742 177.29L366.742 195.255L378.672 206.701L403.47 182.909L383.261 163.52L377.162 169.371L387.339 179.136L378.003 188.094L366.742 177.29ZM316.536 182.902L336.738 163.52L342.837 169.371L332.66 179.136L341.996 188.094L353.538 177.021L353.538 195.009L341.347 206.706L316.536 182.902ZM385.928 103.582L366.742 85.174L366.742 121.99L385.928 103.582Z" fill="white"/>
</svg>
