<svg width="24" height="23" viewBox="0 0 24 23" fill="none" xmlns="http://www.w3.org/2000/svg">
<path d="M8.71238 18.2544C3.20354 19.6812 3.20354 15.8765 1 15.4009M16.4248 21.1079V17.4269C16.4661 16.9733 16.3951 16.5174 16.2165 16.0894C16.038 15.6613 15.7559 15.271 15.3891 14.9443C18.8487 14.6114 22.4845 13.4795 22.4845 8.28617C22.4842 6.95818 21.8925 5.68112 20.8318 4.7193C21.3341 3.55745 21.2986 2.27323 20.7327 1.13339C20.7327 1.13339 19.4326 0.800486 16.4248 2.54112C13.8995 1.95028 11.2376 1.95028 8.71238 2.54112C5.70455 0.800486 4.40447 1.13339 4.40447 1.13339C3.83857 2.27323 3.80306 3.55745 4.30531 4.7193C3.23673 5.68825 2.64441 6.97686 2.65265 8.31471C2.65265 13.47 6.28849 14.6019 9.74804 14.9729C9.38556 15.2963 9.106 15.6819 8.92757 16.1047C8.74913 16.5275 8.67581 16.978 8.71238 17.4269V21.1079" stroke="#1E1E1E" stroke-width="2" stroke-linecap="round" stroke-linejoin="round"/>
</svg>
