<svg width="192" height="192" viewBox="0 0 192 192" fill="none" xmlns="http://www.w3.org/2000/svg">
<rect width="192" height="192" rx="28" fill="#1FBCBC"/>
<path fill-rule="evenodd" clip-rule="evenodd" d="M100.995 88.6161C100.995 88.1265 101.19 87.6571 101.536 87.3111L128.187 60.6863C128.909 59.9658 128.909 58.7968 128.187 58.0763L97.2861 27.2057C96.5659 26.4861 95.3989 26.4861 94.6786 27.2057L63.7773 58.0763C63.056 58.7968 63.056 59.9658 63.7773 60.6863L90.713 87.5953C91.0594 87.9413 91.254 88.4108 91.254 88.9003V99.6265C91.254 101.264 89.2786 102.09 88.1132 100.939L80.1595 93.0855C79.4398 92.3748 78.282 92.3763 77.564 93.0888L58.3692 112.138C57.6483 112.853 56.4847 112.851 55.7661 112.133L40.8738 97.256C40.1526 96.5354 40.1526 95.3665 40.8738 94.6459L52.7937 82.7379C53.514 82.0183 54.681 82.0183 55.4012 82.7379L57.2879 84.6227C58.0091 85.3432 58.0091 86.5122 57.2879 87.2327L52.3925 92.1232C51.6713 92.8437 51.6713 94.0127 52.3925 94.7332L56.6706 99.0071C57.3909 99.7266 58.5579 99.7266 59.2781 99.0071L71.0217 87.2752C71.7416 86.556 71.7431 85.3895 71.0249 84.6685L55.4638 69.0443C54.7452 68.3229 53.5781 68.3201 52.8561 69.038L27.2159 94.5338C26.4925 95.2531 26.4903 96.4229 27.2109 97.1449L94.724 164.791C95.4439 165.512 96.6123 165.513 97.3333 164.793L164.798 97.4072C165.517 96.6883 165.519 95.5222 164.802 94.801L139.243 69.1127C138.524 68.39 137.355 68.3876 136.633 69.1073L121.023 84.6685C120.3 85.3888 120.299 86.5588 121.021 87.2799L132.76 99.0071C133.48 99.7266 134.647 99.7266 135.367 99.0071L139.646 94.7332C140.367 94.0127 140.367 92.8437 139.646 92.1232L134.75 87.2327C134.029 86.5122 134.029 85.3432 134.75 84.6227L136.637 82.7379C137.357 82.0183 138.524 82.0183 139.244 82.7379L151.169 94.6502C151.89 95.3707 151.89 96.5397 151.169 97.2602L136.274 112.14C135.556 112.858 134.392 112.859 133.671 112.144L114.414 93.025C113.693 92.3093 112.529 92.3111 111.811 93.0291L104.144 100.688C102.981 101.85 100.995 101.026 100.995 99.3834V88.6161ZM91.254 49.4133C91.254 47.7703 89.2679 46.9471 88.1056 48.1082L78.1276 58.0763C77.4063 58.7968 77.4063 59.9658 78.1276 60.6863L88.1056 70.6544C89.2679 71.8156 91.254 70.9924 91.254 69.3494V49.4133ZM109.986 111.225C109.265 110.504 109.265 109.335 109.986 108.615L111.874 106.728C112.595 106.009 113.762 106.009 114.482 106.728L126.78 119.014C127.501 119.735 127.501 120.904 126.78 121.624L111.097 137.292C110.377 138.011 109.21 138.011 108.49 137.292L101.536 130.345C101.19 129.999 100.995 129.53 100.995 129.04V120.456C100.995 118.813 102.981 117.99 104.144 119.151L107.995 122.999C108.716 123.718 109.883 123.718 110.603 122.999L114.881 118.725C115.602 118.004 115.602 116.836 114.881 116.115L109.986 111.225ZM82.0566 111.225C82.7778 110.504 82.7778 109.335 82.0566 108.615L80.1638 106.724C79.4435 106.004 78.2765 106.004 77.5563 106.724L65.26 119.008C64.5388 119.728 64.5388 120.897 65.26 121.618L80.9537 137.296C81.674 138.016 82.8409 138.016 83.5612 137.296L90.713 130.151C91.0594 129.805 91.254 129.336 91.254 128.846L91.254 120.249C91.254 118.606 89.2679 117.783 88.1056 118.944L84.0471 122.999C83.3268 123.718 82.1599 123.718 81.4396 122.999L77.1615 118.725C76.4403 118.004 76.4403 116.836 77.1615 116.115L82.0566 111.225ZM100.995 49.6975C100.995 48.0545 102.981 47.2313 104.144 48.3925L113.837 58.0763C114.558 58.7968 114.558 59.9658 113.837 60.6863L104.144 70.3702C102.981 71.5314 100.995 70.7081 100.995 69.0652V49.6975Z" fill="white"/>
</svg>
