<svg width="20" height="20" viewBox="0 0 20 20" fill="none" xmlns="http://www.w3.org/2000/svg">
<path fill-rule="evenodd" clip-rule="evenodd" d="M9 2C5.13401 2 2 5.134 2 8.99998C2 12.866 5.13401 16 9 16C12.866 16 16 12.866 16 8.99998C16 5.134 12.866 2 9 2ZM0 8.99998C0 4.02943 4.02944 0 9 0C13.9706 0 18 4.02943 18 8.99998C18 13.9705 13.9706 18 9 18C4.02944 18 0 13.9705 0 8.99998Z" fill="#1E1E1E"/>
<path fill-rule="evenodd" clip-rule="evenodd" d="M13.9433 13.9429C14.3338 13.5524 14.967 13.5524 15.3575 13.9429L19.7075 18.2929C20.098 18.6834 20.098 19.3166 19.7075 19.7071C19.317 20.0976 18.6838 20.0976 18.2933 19.7071L13.9433 15.3571C13.5528 14.9666 13.5528 14.3334 13.9433 13.9429Z" fill="#1E1E1E"/>
</svg>
